HIERARCHY
ROOT Hips
{
	OFFSET -14.64140 90.27770 -84.91600
	CHANNELS 6 Xposition Yposition Zposition Zrotation Xrotation Yrotation
	JOINT Spine
	{
		OFFSET 0.00000 13.20850 -1.60436
		CHANNELS 3 Zrotation Xrotation Yrotation
		JOINT Spine1
		{
			OFFSET 0.00000 8.61716 0.00000
			CHANNELS 3 Zrotation Xrotation Yrotation
			JOINT Spine2
			{
				OFFSET 0.00000 8.61717 0.00000
				CHANNELS 3 Zrotation Xrotation Yrotation
				JOINT Spine3
				{
					OFFSET 0.00000 8.61717 0.00000
					CHANNELS 3 Zrotation Xrotation Yrotation
					JOINT Neck
					{
						OFFSET 0.00000 11.07920 1.10792
						CHANNELS 3 Zrotation Xrotation Yrotation
						JOINT Neck1
						{
							OFFSET 0.00000 7.08032 0.00000
							CHANNELS 3 Zrotation Xrotation Yrotation
							JOINT Head
							{
								OFFSET 0.00000 7.08031 0.00000
								CHANNELS 3 Zrotation Xrotation Yrotation
								End site
								{
									OFFSET 0.00000 0.00000 0.00000
								}
							}
						}
					}
					JOINT RightShoulder
					{
						OFFSET -0.01000 7.91373 5.19711
						CHANNELS 3 Zrotation Xrotation Yrotation
						JOINT RightArm
						{
							OFFSET -18.41580 0.00000 0.00000
							CHANNELS 3 Zrotation Xrotation Yrotation
							JOINT RightForeArm
							{
								OFFSET -29.11090 0.00000 0.00000
								CHANNELS 3 Zrotation Xrotation Yrotation
								JOINT RightHand
								{
									OFFSET -24.65040 0.00000 0.00000
									CHANNELS 3 Zrotation Xrotation Yrotation
									JOINT RightHandThumb1
									{
										OFFSET -5.35114 -0.85590 3.97906
										CHANNELS 3 Zrotation Xrotation Yrotation
										JOINT RightHandThumb2
										{
											OFFSET -4.52789 0.00000 0.00000
											CHANNELS 3 Zrotation Xrotation Yrotation
											JOINT RightHandThumb3
											{
												OFFSET -2.46976 0.00000 0.00000
												CHANNELS 3 Zrotation Xrotation Yrotation
												End site
												{
													OFFSET 0.00000 0.00000 0.00000
												}
											}
										}
									}
									JOINT RightHandIndex1
									{
										OFFSET -14.26970 0.00000 2.88139
										CHANNELS 3 Zrotation Xrotation Yrotation
										JOINT RightHandIndex2
										{
											OFFSET -5.48836 0.00000 0.00000
											CHANNELS 3 Zrotation Xrotation Yrotation
											JOINT RightHandIndex3
											{
												OFFSET -3.01859 0.00000 0.00000
												CHANNELS 3 Zrotation Xrotation Yrotation
												End site
												{
													OFFSET 0.00000 0.00000 0.00000
												}
											}
										}
									}
									JOINT RightHandMiddle1
									{
										OFFSET -14.26970 0.00000 -0.09147
										CHANNELS 3 Zrotation Xrotation Yrotation
										JOINT RightHandMiddle2
										{
											OFFSET -6.17441 0.00000 0.00000
											CHANNELS 3 Zrotation Xrotation Yrotation
											JOINT RightHandMiddle3
											{
												OFFSET -3.56743 0.00000 0.00000
												CHANNELS 3 Zrotation Xrotation Yrotation
												End site
												{
													OFFSET 0.00000 0.00000 0.00000
												}
											}
										}
									}
									JOINT RightHandRing1
									{
										OFFSET -12.69180 0.00000 -3.06433
										CHANNELS 3 Zrotation Xrotation Yrotation
										JOINT RightHandRing2
										{
											OFFSET -5.62556 0.00000 0.00000
											CHANNELS 3 Zrotation Xrotation Yrotation
											JOINT RightHandRing3
											{
												OFFSET -3.56744 0.00000 0.00000
												CHANNELS 3 Zrotation Xrotation Yrotation
												End site
												{
													OFFSET 0.00000 0.00000 0.00000
												}
											}
										}
									}
									JOINT RightHandPinky1
									{
										OFFSET -11.11390 0.00000 -6.03719
										CHANNELS 3 Zrotation Xrotation Yrotation
										JOINT RightHandPinky2
										{
											OFFSET -4.52789 0.00000 0.00000
											CHANNELS 3 Zrotation Xrotation Yrotation
											JOINT RightHandPinky3
											{
												OFFSET -2.46976 0.00000 0.00000
												CHANNELS 3 Zrotation Xrotation Yrotation
												End site
												{
													OFFSET 0.00000 0.00000 0.00000
												}
											}
										}
									}
								}
							}
						}
					}
					JOINT LeftShoulder
					{
						OFFSET 0.01000 7.91373 5.19711
						CHANNELS 3 Zrotation Xrotation Yrotation
						JOINT LeftArm
						{
							OFFSET 18.41580 0.00000 0.00000
							CHANNELS 3 Zrotation Xrotation Yrotation
							JOINT LeftForeArm
							{
								OFFSET 29.11090 0.00000 0.00000
								CHANNELS 3 Zrotation Xrotation Yrotation
								JOINT LeftHand
								{
									OFFSET 24.65040 0.00000 0.00000
									CHANNELS 3 Zrotation Xrotation Yrotation
									JOINT LeftHandThumb1
									{
										OFFSET 5.35114 -0.85590 3.97906
										CHANNELS 3 Zrotation Xrotation Yrotation
										JOINT LeftHandThumb2
										{
											OFFSET 4.52789 0.00000 0.00000
											CHANNELS 3 Zrotation Xrotation Yrotation
											JOINT LeftHandThumb3
											{
												OFFSET 2.46977 0.00000 0.00000
												CHANNELS 3 Zrotation Xrotation Yrotation
												End site
												{
													OFFSET 0.00000 0.00000 0.00000
												}
											}
										}
									}
									JOINT LeftHandIndex1
									{
										OFFSET 14.26970 0.00000 2.88139
										CHANNELS 3 Zrotation Xrotation Yrotation
										JOINT LeftHandIndex2
										{
											OFFSET 5.48836 0.00000 0.00000
											CHANNELS 3 Zrotation Xrotation Yrotation
											JOINT LeftHandIndex3
											{
												OFFSET 3.01859 0.00000 0.00000
												CHANNELS 3 Zrotation Xrotation Yrotation
												End site
												{
													OFFSET 0.00000 0.00000 0.00000
												}
											}
										}
									}
									JOINT LeftHandMiddle1
									{
										OFFSET 14.26970 0.00000 -0.09147
										CHANNELS 3 Zrotation Xrotation Yrotation
										JOINT LeftHandMiddle2
										{
											OFFSET 6.17440 0.00000 0.00000
											CHANNELS 3 Zrotation Xrotation Yrotation
											JOINT LeftHandMiddle3
											{
												OFFSET 3.56744 0.00000 0.00000
												CHANNELS 3 Zrotation Xrotation Yrotation
												End site
												{
													OFFSET 0.00000 0.00000 0.00000
												}
											}
										}
									}
									JOINT LeftHandRing1
									{
										OFFSET 12.69180 0.00000 -3.06433
										CHANNELS 3 Zrotation Xrotation Yrotation
										JOINT LeftHandRing2
										{
											OFFSET 5.62556 0.00000 0.00000
											CHANNELS 3 Zrotation Xrotation Yrotation
											JOINT LeftHandRing3
											{
												OFFSET 3.56744 0.00000 0.00000
												CHANNELS 3 Zrotation Xrotation Yrotation
												End site
												{
													OFFSET 0.00000 0.00000 0.00000
												}
											}
										}
									}
									JOINT LeftHandPinky1
									{
										OFFSET 11.11390 0.00000 -6.03719
										CHANNELS 3 Zrotation Xrotation Yrotation
										JOINT LeftHandPinky2
										{
											OFFSET 4.52789 0.00000 0.00000
											CHANNELS 3 Zrotation Xrotation Yrotation
											JOINT LeftHandPinky3
											{
												OFFSET 2.46976 0.00000 0.00000
												CHANNELS 3 Zrotation Xrotation Yrotation
												End site
												{
													OFFSET 0.00000 0.00000 0.00000
												}
											}
										}
									}
								}
							}
						}
					}
					JOINT pCube4
					{
						OFFSET 0.00000 10.91090 1.10792
						CHANNELS 3 Zrotation Xrotation Yrotation
						End site
						{
							OFFSET 0.00000 0.00000 0.00000
						}
					}
				}
			}
		}
	}
	JOINT RightUpLeg
	{
		OFFSET -9.98441 0.00000 0.00000
		CHANNELS 3 Zrotation Xrotation Yrotation
		JOINT RightLeg
		{
			OFFSET 0.00000 -42.11790 0.00000
			CHANNELS 3 Zrotation Xrotation Yrotation
			JOINT RightFoot
			{
				OFFSET 0.00000 -45.00020 -0.00001
				CHANNELS 3 Zrotation Xrotation Yrotation
				JOINT RightForeFoot
				{
					OFFSET 0.00000 -3.74820 0.00000
					CHANNELS 3 Zrotation Xrotation Yrotation
					JOINT RightToeBase
					{
						OFFSET 0.00000 0.06325 14.43120
						CHANNELS 3 Zrotation Xrotation Yrotation
						End site
						{
							OFFSET 0.00000 0.00000 0.00000
						}
					}
				}
			}
		}
	}
	JOINT LeftUpLeg
	{
		OFFSET 9.98441 0.00000 0.00000
		CHANNELS 3 Zrotation Xrotation Yrotation
		JOINT LeftLeg
		{
			OFFSET 0.00000 -42.11800 0.00000
			CHANNELS 3 Zrotation Xrotation Yrotation
			JOINT LeftFoot
			{
				OFFSET 0.00000 -45.00070 0.00000
				CHANNELS 3 Zrotation Xrotation Yrotation
				JOINT LeftForeFoot
				{
					OFFSET 0.00000 -3.74824 0.00000
					CHANNELS 3 Zrotation Xrotation Yrotation
					JOINT LeftToeBase
					{
						OFFSET 0.00000 0.06325 14.43110
						CHANNELS 3 Zrotation Xrotation Yrotation
						End site
						{
							OFFSET 0.00000 0.00000 0.00000
						}
					}
				}
			}
		}
	}
}
MOTION
Frames: 4
Frame Time: 0.050000
0.011188039561591687 0.03274605889552772 -0.004341170185077132 0.04814353698299252 0.007213899896103319 -0.02324786018285506 -3.675943033634904 4.237222966323043 -0.5820691710845288 -1.057074292094006 3.9146487271104666 0.42197840428594613 -1.3789255993659644 -0.9761298226233881 -0.14514923322969003 0.39380813977932017 0.8486306343187787 -0.8102398265581485 0.680517507174607 12.103294112731163 -2.2126192040669546 -0.40996986718035244 -1.8215990213517577 -9.019447024156449 0.5194278306151544 -18.00288345645357 -0.7450612495448654 -3.649290341812125 1.5529530591811453 -13.099824124214765 69.80595078682401 15.079083528411813 22.66506769625373 6.781795508033925 5.032540966986528 84.74312940893923 13.518430607664781 -0.4766044717587959 -4.525279648663363 4.484239765859114 -0.09296054228455665 -1.5838072027814019 -0.044682975610675885 -0.048557887110736275 -56.282662180567215 -0.002377557580631161 0.002667145207673202 -56.22205677172138 -38.7947681973426 0.007561388324729334 -0.03886732906993256 0.03887415428878752 0.026298194894950038 -0.03393007660482453 0.015383747589666614 0.0018150364291460001 -0.03942061136276077 -36.70662042100475 -0.022806031136453766 0.034404270581021426 -0.049677188199954425 0.004124932555068157 -0.03628892634766215 0.03917242702520163 0.027028794410301878 0.02490358418354567 -19.77068951796984 0.027082879990272857 0.03822655365997033 -0.012698112124190907 -0.041756290440396006 -0.037144926816923676 0.043560279575132116 -0.018614426050275548 0.029376011856345936 24.00729891762309 -0.03856884597057844 -0.03979611366012416 28.8361270984375 -0.007708181376790326 -0.031362769315808676 28.885276521692216 -0.00648251025945547 -0.046256013244608214 1.3506234001353012 0.6015961351921089 11.693285720281311 -66.0043194245704 26.064511636890195 -7.357823378542678 6.906123110859321 -13.406124963587061 -52.83486068964374 -8.95976054137605 2.5698674935948818 0.6555992032656723 -0.5026042061823899 0.040159423712306304 -8.164660603998122 -0.01428375553134129 0.04795704231810688 44.53875792776283 0.023482393610603867 0.00790811481612962 44.55202769077294 12.416820337983484 0.030259030341940205 -0.01296328025710259 -0.048799960758278374 -0.032539920174013484 0.012115089136704175 0.0015177315341009566 -0.01610781860464303 -0.021214698473142175 11.151486084705951 -0.037793504357079385 0.00932371868755855 -0.03788791246723518 0.04470500637791603 -0.04385502908933814 -0.03735238481279514 -0.009820263890017453 -0.04266441525508002 4.807443738408938 -0.007366009015783928 0.03091335838227794 -0.004409458560028061 -0.04422722356686346 0.037194145594127405 0.040916639636226146 -0.04717640497848836 -0.009500841704015049 -5.567307286128486 -0.029717270554397483 -0.0077115481709837804 -6.731596390031854 0.017233745924421687 -0.006978740643247781 -6.766496451234581 -0.0010441831872195048 -0.04300518894873812 -0.01718277394074289 0.032016477178800164 0.0019899877598860746 8.070741157558917 3.5229197577011657 -19.24658633824482 -0.004897486192798092 10.432268823929885 0.04315468791651879 -5.6056989327979 -15.672456076465876 3.1602879236591788 -0.04589221762587614 0.0002623214024386688 0.04278231859036036 0.042377576801969796 4.736828258028328 -0.0028813511778516244 12.433216975343129 -8.243294489116659 6.881269858102879 0.03404705523442122 46.4080015600328 -0.012426373210580125 -4.331559534410888 -14.727263413985806 -3.8519551173429636 -0.045064417272266455 0.033801960444733714 0.045495132984048815 0.021028072696181888 -10.734653214754797 -0.045998667419652625 
-0.0008137897612626242 -0.006464465033277998 -0.013683853554586673 0.04888885493733008 0.0335838156557014 0.02861096680499417 -3.538411335692384 3.9664897144990845 -0.6283577083552405 -1.0782476456069108 3.9058319392775984 0.39905293076650805 -1.372431394848032 -1.1067050604674904 -0.08927792815630228 0.3054648402472391 0.8078606618631802 -0.7675201834029037 0.6363090404668094 12.437797658443532 -2.048085275771919 -0.36263110858463754 -1.7762485017233876 -8.374529420941547 0.4962315168167985 -18.019261607384497 -0.6432736838965595 -4.149808757073019 1.65156186816591 -13.361246970041876 70.443327988934 14.561839725707515 21.92331890353507 4.47299422077469 5.027586516145723 82.61446924506839 13.283460186252642 -0.45815271825226794 -4.149992614371307 4.538327588754144 -0.13143108087085828 -1.577948946906364 -0.013888329940646992 -0.008335314005917341 -56.28418616640739 -0.009878476314994918 0.006179014465247368 -56.26890322317167 -38.793865134864085 0.03958081820086969 0.02966792934096407 0.0033101664846117893 0.04554024211517256 -0.028137641648699852 -0.03346047848817096 -0.017174081627349267 0.009472219577713752 -36.644989821990286 0.013012364593055242 0.019839507090372 0.027220921519451963 0.009446926984043874 -0.03590226671727154 -0.0497922663221796 0.01694274745962289 -0.018366449222016582 -19.79790278461188 -0.04829758435271844 0.011700915359639156 -0.003894534929391874 -0.01470474901346268 -0.011006580464077919 -0.00687933055701043 0.005739877586619312 0.028692036384910972 24.039524222473162 -0.021890562476947234 0.04486251607522873 28.873402866036198 -0.013912457407558176 -0.007346907516864112 28.867308615560713 -0.022785902147583807 -0.02466920344860403 2.034797214215716 0.6815081775497182 11.908190099328305 -66.32733513403969 26.120673418025103 -7.638525349764984 6.526337900007813 -13.53573602759022 -52.806406155087494 -9.030387836348162 1.9271058383316655 0.9648337799173281 -0.44224754671985606 0.07924721939016241 -8.108512017306934 -0.026085224237374745 -0.03325291819486313 44.599611146299594 0.020170191352366234 0.0357159869229524 44.520741234716404 12.475404319122935 0.00540355997338809 0.04707243709761234 0.03452520704589463 0.04227089308656325 -0.01808544725307383 -0.04196889810966653 0.009821389342310657 -0.020455682610351477 11.111549515644128 -0.00938068572038905 -0.042881168957429126 -0.0010804678880573233 0.014223132563376284 -0.017328916350500583 0.016014998741923327 -0.04781395566275794 0.020892267306136428 4.775808490159166 -0.029309150903542042 0.01437785179472877 -0.004112641700379259 -0.044646975747064485 0.04996302146511157 0.011154070118158057 0.001970625761197229 -0.03481402903163551 -5.6011070361862 -0.0074454209727821555 -0.016861821602176173 -6.700114963431693 0.029591916473194053 -0.009039265282113858 -6.740479021798062 0.002018824578107449 0.040004920037816354 0.027995055578399503 0.020107757321625497 -0.006252534579561682 7.995102924050042 3.4709984530338542 -19.238107577504586 0.020177430032454525 10.347580570537854 0.00680998476938631 -5.584279548012416 -15.683996533270118 3.1695445928017265 -0.017631917591316215 -0.025117936875810994 -0.026788409238138598 0.008756044310874202 4.724301890937071 -0.03096934897567337 12.469861378816086 -8.20693387689969 6.930471150972149 0.037132772214077736 46.394901242237076 0.04259779780374054 -4.281569020983096 -14.789581141332196 -3.877742804914665 0.018172555966491383 -0.014010787007694639 -0.01414877343987224 0.04381897402351236 -10.750535259148037 -0.04751955054815943 
0.01664506077124672 -0.017741092777300734 -0.01855469094437828 0.042251481486909964 0.0283359543973464 0.03623426442805135 -3.254232692131108 3.8160050714216562 -0.7135094574583443 -1.0682709663510472 3.969800039609184 0.37941990349225774 -1.313278769250132 -1.1567819996733701 -0.0981716147759015 0.2911264308543679 0.7241347616976794 -0.7405097196265437 0.5478276055334628 12.70136636421763 -1.9846454288957727 -0.3022153183119125 -1.6142842393028858 -7.899676291955289 0.4582776721101246 -17.853271832923614 -0.6718142348998024 -4.685290869049283 1.7718905560581364 -13.603547193921873 71.00201114040345 14.796248683968129 21.138609371270807 1.6452893703309575 4.728392033369379 79.21867639948405 13.318470784585827 -0.40522002658649137 -3.777962266021471 4.481178413248593 -0.0962580761811188 -1.5791273238906702 -0.03774110589008415 -0.00453938346292536 -56.2547367301849 -0.048003670599511127 -0.022008948611715373 -56.21557873886175 -38.778886372566085 -0.029943643719903868 -0.0281520100008557 -0.040702781742641136 -0.00345753769422444 0.0012000017291198184 0.0379830096086769 -0.028267203014156226 -0.0440857389368883 -36.65713689891432 -0.011632838729064142 0.011606558960950992 0.002565606377714377 -0.03584039636579451 0.0070003782729666985 0.0033271352691624325 0.027446982886822353 -0.012771225979534373 -19.73644513510993 0.004623864892191554 0.0426740128940751 -0.018581966945457617 -0.031933778260138324 0.005356653891724491 -0.01795302201951822 0.0018741202088547696 -0.002813017453076972 24.018447105720366 -0.012936533685776868 -0.0025764508508284416 28.889292593089408 -0.01652777753979196 0.015592671371618379 28.84714282735745 -0.008711918985507645 -0.020657932520036313 2.6702776339001515 0.8350862288052391 12.113371060317814 -66.41080242542888 26.31703760119895 -8.184431825780484 6.033487576460418 -13.500142601317789 -53.075415485687536 -9.265023369078515 1.3644074445500793 1.3587898074369076 -0.4425363645814221 0.0654958973980965 -8.168863447260978 0.016912195079044876 0.026488995950396926 44.545529762321664 0.045077150771576494 -0.031378812238227444 44.5512734043372 12.478683700504462 0.010821356574044224 0.01163362256155434 -0.021686868057462397 0.0004869095977664482 -0.03748961271714145 -0.01202036129098048 0.0006191964900551484 -0.046614902889627934 11.067764703805162 -0.030789574537828 -0.01091030176526988 -0.01117040267883613 -0.04533469368555088 -0.027855194703320582 0.009133065219154161 -0.010478584199360196 0.039246690412746914 4.808856701582364 0.030082385147856498 -0.04089514110318994 0.04066543304648118 0.026067880327125644 0.006594732026417587 -0.0060462726469482355 0.04123715989603103 -0.026471609495146792 -5.6100753460344235 -0.024896255660736662 -0.042720928375939195 -6.7087572496779195 0.027359920973753126 0.012961567251085162 -6.671197858991806 0.027064660095278265 0.007149654383569472 -0.028847065479774545 0.013910465888535482 0.0004694664821387819 8.008449220847483 3.5270998890118985 -19.23983481631023 -0.010965554826909042 10.38896346457511 0.05632273006012252 -5.6222580774029405 -15.621607926766554 3.1555578494425793 0.04554646119553394 0.0005851264394383013 0.04460038482599718 -0.02646129085136763 4.742661884180169 -0.028807232785542206 12.440735361965743 -8.20464960762603 6.8902089028039235 0.005334469317103316 46.39508287958034 0.04472351886397323 -4.320525079317563 -14.75069205885509 -3.8550201148097765 -0.026239274099359167 0.033985372827040686 -0.00464229740112056 0.018998171996404616 -10.74288270218427 -0.005119828589870725 
-0.024799024725639635 0.006515136775526991 0.0161858540745781 -0.02484375854199462 0.03158473370319211 -0.026733375137504057 -2.988044827902471 3.4342409154480724 -0.6896485970477347 -1.0683759296233917 3.877093396697721 0.37995153959392536 -1.2904453103971587 -1.2721132935621702 -0.013532792817123347 0.22726218788849978 0.6761222018296472 -0.6875805939693082 0.4695796195851987 13.000351967565766 -1.8983930063378882 -0.2827490708419934 -1.4035317992913525 -7.4945483231564545 0.4801572732162771 -17.482555572665678 -0.5852256426576231 -5.294801830775281 1.9321856015496188 -13.735577419784418 71.28478484092636 13.911573297247873 21.41531099444938 0.1660316733917317 4.161091583628446 78.06518147748196 13.112964643858842 -0.37556196765951394 -3.3849305177392996 4.512081764371928 -0.12632781052944914 -1.576041299793908 0.01771223748175184 0.01846926293938154 -56.21627217255692 -0.009405112391685375 0.03249692043275856 -56.251623156608545 -38.79376421032123 0.048737132921463915 -0.0223384478793549 0.011201082188261352 0.02481729912440303 0.02145234508379163 -0.017788840835068556 0.02200815070993486 -0.04518045320128705 -36.716005449420855 0.014361398076149499 0.005330733196591444 0.006635315868663351 0.002052449680388042 0.026944419537473008 -0.01864142104946737 -0.027611616897758425 -0.04981807053582904 -19.798258522345503 0.04784406244566479 -0.02988346670164501 0.0266719746830717 0.024864123999777516 -0.030280747035318818 -0.010030506962091432 -0.04265714648595606 0.0470926006299637 24.09306335915792 -0.029351262790234173 0.013051083960291962 28.852869229445666 0.014958776535083297 -0.0214382573972469 28.863852855011825 0.026381304738537843 0.03301316473756986 3.60564370797015 0.9881453108780827 12.294873133041484 -66.42541375690641 25.773577706013313 -9.412798100650168 5.7170001077008346 -13.49602107253159 -53.898936548086915 -9.076035025674145 0.9550857027912066 1.4894412944668516 -0.4931278042465933 0.019845109974580624 -8.159662481670859 -0.006283462486627295 0.025906093293338643 44.585279271311904 0.013143648608944269 -0.04316264047131338 44.56658962203908 12.44810880499906 -0.037345916304671385 -0.04078069596983512 -0.029701028346297183 0.022771981512719808 -0.037913879344251306 0.04281631589237767 0.0020963117017955566 -0.035994066222481094 11.122300240400879 -0.01814909299154674 -0.03928818249849128 0.014627025162809662 -0.0355787621511818 -0.019882777199225998 0.03361906605154895 0.034554367933489705 -0.008766073619494415 4.74711927553308 0.03179315991472492 -0.005979702482161001 0.047789042411878736 -0.005366726858714125 -0.009361126909048664 0.0328920379850109 0.03869678345608535 -0.008285738591244068 -5.6140101116717585 -0.04019992672529537 -0.0017101324880272378 -6.723514198440809 0.013132838632792309 -0.022735580126696242 -6.676228345591355 -0.048812416146106465 -0.02172245195181045 -0.00486667711054079 0.0034516328846546126 0.04547382682255446 8.061978339437873 3.5429690852855757 -19.206044869405577 -0.00696171857716176 10.431980159225597 0.03804009210656662 -5.59612888871326 -15.647506696950591 3.1495936079195745 -0.020479097727558838 -0.03950388447387538 -0.017063765893699914 0.035070358057055606 4.649881271296279 0.03621690608154929 12.430030636165004 -8.201043434455919 6.889737622594434 -0.010524895213350982 46.374206794890874 -0.006286499460460797 -4.292946727567215 -14.706494199719815 -3.8743988565098326 0.013936445783015491 -0.0068545071879656415 -0.004181857347437269 0.04582299096898766 -10.77854998918 0.04482870162066899 
